# xmcd
#
# Track frame offsets:
#       150
#       12390
#       27637
#       48187
#       62614
#       84075
#       100687
#       118125
#       131937
#       147562
#       159052
#       202309
#
# Disc length: 2702 seconds
#
# Revision: 0
# Processed by: cddbd v1.5.1PL0 Copyright (c) Steve Scherf et al.
# Submitted via: CD-DA_X-Tractor v0.24
#
DISCID=a50a8c0c
DTITLE=Wild West Picture Show - Wild West Picture Show
DYEAR=1900
DGENRE=
TTITLE0=See Right Through
TTITLE1=Last Time
TTITLE2=Possible
TTITLE3=Ring of Fire
TTITLE4=Mary's Walking
TTITLE5=Falling
TTITLE6=Am I the Only One
TTITLE7=You Ain't Woman Enough
TTITLE8=Dance Dance Dance
TTITLE9=Beulah Land
TTITLE10=Sidewinder
TTITLE11=WWPS Bonus Track
EXTD=
EXTT0=
EXTT1=
EXTT2=
EXTT3=
EXTT4=
EXTT5=
EXTT6=
EXTT7=
EXTT8=
EXTT9=
EXTT10=
EXTT11=
PLAYORDER=
